<?xml version="1.0" encoding="utf-8"?>
<!-- Generator: Adobe Illustrator 19.0.0, SVG Export Plug-In . SVG Version: 6.00 Build 0)  -->
<svg version="1.1" id="Warstwa_1" xmlns="http://www.w3.org/2000/svg" xmlns:xlink="http://www.w3.org/1999/xlink" x="0px" y="0px"
	 viewBox="-674.2 379.1 46.2 34.4" style="enable-background:new -674.2 379.1 46.2 34.4;" xml:space="preserve">
<style type="text/css">
	.st0{fill:#FFFFFF;}
</style>
<g>
	<path class="st0" d="M-657.4,379.3v3.7h-0.8c-3.3,0.1-6,1.1-7.9,3c-2,1.9-3.1,4.6-3.4,8c1.8-2,4.1-3.1,7.2-3.1c3,0,5.3,1.1,7,3.1
		c1.8,2,2.6,4.7,2.6,8c0,3.4-0.9,6.3-2.8,8.3c-1.9,2-4.4,3.1-7.6,3.1s-5.8-1.2-7.8-3.7c-2-2.5-3-5.7-3-9.6v-1.7
		c0-6.1,1.3-10.9,3.9-14.2c2.6-3.3,6.6-5,11.8-5L-657.4,379.3L-657.4,379.3z M-663,394.6c-1.4,0-2.8,0.5-4,1.3
		c-1.2,0.8-2.1,2-2.6,3.3v1.5c0,2.7,0.6,5,1.9,6.7c1.3,1.7,2.8,2.5,4.6,2.5c1.9,0,3.4-0.7,4.5-2.1c1.1-1.4,1.7-3.3,1.7-5.6
		c0-2.4-0.6-4.1-1.7-5.6C-659.7,395.3-661.1,394.6-663,394.6z"/>
	<path class="st0" d="M-638.8,397.2l5.6-9.1h5l-8.1,12.3l8.4,12.6h-5l-5.8-9.3l-5.8,9.3h-5l8.4-12.6l-8.1-12.3h5L-638.8,397.2z"/>
</g>
</svg>
