<?xml version="1.0" encoding="utf-8"?>
<!-- Generator: Adobe Illustrator 19.0.0, SVG Export Plug-In . SVG Version: 6.00 Build 0)  -->
<svg version="1.1" id="Warstwa_1" xmlns="http://www.w3.org/2000/svg" xmlns:xlink="http://www.w3.org/1999/xlink" x="0px" y="0px"
	 viewBox="-481 158 477 478" style="enable-background:new -481 158 477 478;" xml:space="preserve">
<style type="text/css">
	.st0{fill:#17A6EF;}
</style>
<path class="st0" d="M-53.2,396c0-103.9-85-189-189-189c-103.9,0-189,85-189,189s85,189,189,189C-138.3,585-53.2,502.3-53.2,396
	 M-6,396c0,129.9-106.3,236.2-236.2,236.2C-372.1,632.3-478.4,526-478.4,396c0-129.9,106.3-236.2,236.2-236.2S-6,266.1-6,396
	 M-289.4,337c0,18.9-16.5,35.4-35.4,35.4c-18.9,0-35.5-16.5-35.5-35.4s16.5-35.4,35.4-35.4S-289.4,318.1-289.4,337 M-124.1,337
	c0,18.9-16.5,35.4-35.4,35.4s-35.4-16.5-35.4-35.4s16.5-35.4,35.4-35.4C-140.6,301.5-124.1,318.1-124.1,337 M-242.2,521.2
	c-42.5,0-78-16.5-99.2-42.5l33.1-33.1c9.4,16.5,35.4,28.3,66.1,28.3s54.3-11.8,66.1-28.3l33.1,33.1
	C-164.3,502.3-199.7,521.2-242.2,521.2z"/>
</svg>
