<?xml version="1.0" encoding="utf-8"?>
<!-- Generator: Adobe Illustrator 15.0.0, SVG Export Plug-In . SVG Version: 6.00 Build 0)  -->
<!DOCTYPE svg PUBLIC "-//W3C//DTD SVG 1.1//EN" "http://www.w3.org/Graphics/SVG/1.1/DTD/svg11.dtd">
<svg version="1.1" id="Warstwa_1" xmlns="http://www.w3.org/2000/svg" xmlns:xlink="http://www.w3.org/1999/xlink" x="0px" y="0px"
	 width="508px" height="495px" viewBox="168.695 33.965 508 495" enable-background="new 168.695 33.965 508 495"
	 xml:space="preserve">
<path fill="#17A6EF" d="M425.195,472.442c103.937,0,188.976-85.04,188.976-188.977c0-103.938-85.039-188.978-188.976-188.978
	c-103.938,0-188.978,85.039-188.978,188.978C236.218,387.402,321.258,472.442,425.195,472.442 M425.195,47.244
	c129.921,0,236.22,106.299,236.22,236.221c0,129.921-106.299,236.221-236.22,236.221c-129.922,0-236.221-106.3-236.221-236.221
	C188.974,153.543,295.273,47.244,425.195,47.244 M437.005,165.355v125.197l106.301,63.778l-18.898,28.348l-122.834-75.591V165.355
	H437.005z"/>
</svg>
