<?xml version="1.0" encoding="utf-8"?>
<!-- Generator: Adobe Illustrator 15.0.0, SVG Export Plug-In . SVG Version: 6.00 Build 0)  -->
<!DOCTYPE svg PUBLIC "-//W3C//DTD SVG 1.1//EN" "http://www.w3.org/Graphics/SVG/1.1/DTD/svg11.dtd">
<svg version="1.1" id="Warstwa_1" xmlns="http://www.w3.org/2000/svg" xmlns:xlink="http://www.w3.org/1999/xlink" x="0px" y="0px"
	 width="850.39px" height="237px" viewBox="0 164.965 850.39 237" enable-background="new 0 164.965 850.39 237"
	 xml:space="preserve">
<path fill="#FFFFFF" d="M185.683,310.906c4.483,0,7.925-0.85,10.316-2.559c2.392-1.7,4.1-3.875,5.133-6.518
	c1.025-2.642,1.6-5.6,1.708-8.883c0.108-3.274,0.167-6.491,0.167-9.649v-60.941h4.85v62.81c0,1.791-0.017,3.791-0.059,6.008
	c-0.033,2.217-0.258,4.459-0.658,6.717c-0.4,2.258-1.025,4.458-1.875,6.583c-0.842,2.134-2.075,4.024-3.691,5.69
	c-1.617,1.667-3.659,3.01-6.125,4.025c-2.467,1.017-5.534,1.533-9.208,1.533c-5.292,0-9.45-0.983-12.467-2.935
	c-3.017-1.958-5.242-4.466-6.675-7.532s-2.317-6.426-2.65-10.091c-0.333-3.658-0.492-7.191-0.492-10.602h4.85
	c-0.217,3.409-0.184,6.692,0.108,9.842c0.292,3.15,1.025,5.941,2.208,8.375c1.175,2.425,2.925,4.393,5.242,5.884
	C178.675,310.156,181.783,310.906,185.683,310.906z"/>
<path fill="#FFFFFF" d="M268.458,313.565h-4.167v-14.1l-0.258,0.083c-0.733,2.475-1.783,4.667-3.142,6.583
	c-1.358,1.917-2.934,3.559-4.733,4.926c-1.8,1.366-3.758,2.383-5.892,3.065c-2.134,0.684-4.292,1.024-6.5,1.024
	c-3.308,0-6.108-0.466-8.425-1.408c-2.317-0.933-4.2-2.175-5.667-3.708c-1.466-1.533-2.625-3.259-3.466-5.175
	c-0.842-1.917-1.45-3.858-1.817-5.816c-0.367-1.958-0.592-3.857-0.658-5.69c-0.075-1.834-0.108-3.434-0.108-4.792v-40.658h4.167
	v41.533c0,1.7,0.108,3.768,0.333,6.2c0.217,2.425,0.867,4.773,1.925,7.032c1.067,2.259,2.667,4.199,4.8,5.816
	c2.133,1.616,5.142,2.425,9.042,2.425c3.158,0,6.008-0.684,8.542-2.042c2.533-1.366,4.684-3.258,6.45-5.69
	c1.766-2.434,3.108-5.325,4.025-8.691c0.917-3.365,1.375-7.05,1.375-11.059v-35.524h4.167v65.666H268.458z"/>
<path fill="#FFFFFF" d="M285.174,291.673c0.15,3.075,0.733,5.792,1.758,8.142s2.367,4.358,4.017,6.025
	c1.65,1.666,3.575,2.925,5.783,3.782c2.2,0.858,4.583,1.283,7.159,1.283c1.833,0,3.8-0.19,5.892-0.575
	c2.091-0.383,4.033-1.092,5.833-2.107c1.8-1.024,3.284-2.45,4.458-4.283c1.174-1.833,1.767-4.158,1.767-6.967
	c0-3.666-0.958-6.433-2.867-8.316c-1.908-1.875-4.316-3.324-7.216-4.35c-2.9-1.025-6.025-1.851-9.358-2.492
	c-3.342-0.642-6.458-1.6-9.358-2.875c-2.9-1.273-5.309-3.091-7.217-5.433c-1.908-2.342-2.867-5.775-2.867-10.3
	c0-3.242,0.625-5.942,1.875-8.125c1.25-2.177,2.85-3.9,4.792-5.185c1.95-1.274,4.133-2.19,6.558-2.75
	c2.425-0.559,4.85-0.834,7.275-0.834c2.942,0,5.692,0.384,8.267,1.15c2.567,0.767,4.792,2.009,6.667,3.717s3.342,3.883,4.409,6.533
	c1.066,2.649,1.6,5.85,1.6,9.607h-4.167c0-2.982-0.425-5.542-1.267-7.675c-0.842-2.134-2.025-3.857-3.525-5.184
	c-1.508-1.325-3.292-2.3-5.35-2.941c-2.058-0.642-4.267-0.959-6.617-0.959c-1.917,0-3.841,0.217-5.792,0.644
	c-1.95,0.425-3.692,1.148-5.242,2.175c-1.542,1.023-2.816,2.342-3.808,3.967c-0.992,1.616-1.492,3.583-1.492,5.883
	c0,2.643,0.55,4.775,1.65,6.393c1.1,1.616,2.55,2.925,4.35,3.899c1.8,0.983,3.816,1.768,6.058,2.366
	c2.242,0.601,4.5,1.191,6.775,1.792c2.792,0.6,5.417,1.3,7.875,2.108s4.592,1.916,6.392,3.324c1.8,1.408,3.208,3.217,4.242,5.434
	c1.025,2.217,1.542,5.033,1.542,8.441c0,3.583-0.7,6.524-2.092,8.824s-3.158,4.158-5.283,5.566c-2.125,1.407-4.492,2.384-7.1,2.941
	c-2.6,0.55-5.15,0.833-7.642,0.833c-3.225,0-6.217-0.492-8.967-1.475c-2.75-0.983-5.15-2.477-7.208-4.492
	c-2.05-2.008-3.667-4.467-4.841-7.375c-1.175-2.908-1.8-6.283-1.867-10.133h4.15L285.174,291.673L285.174,291.673z"/>
<path fill="#FFFFFF" d="M358.316,252.132h-12.35v45.833c0,2.642,0.258,4.725,0.775,6.258c0.517,1.533,1.3,2.7,2.367,3.509
	c1.067,0.808,2.35,1.3,3.858,1.467c1.508,0.175,3.25,0.216,5.233,0.125v4.241c-2.133,0.167-4.208,0.15-6.225-0.066
	c-2.025-0.217-3.8-0.851-5.342-1.917c-1.542-1.065-2.767-2.657-3.683-4.792c-0.917-2.133-1.3-5.065-1.15-8.815v-45.841h-10.475
	v-4.242h10.475v-20.508h4.167v20.508h12.35V252.132L358.316,252.132z"/>
<path fill="#FFFFFF" d="M382.482,222.357h31.517c4.7,0,8.634,0.685,11.792,2.042c3.158,1.366,5.691,3.149,7.609,5.366
	c1.908,2.217,3.283,4.75,4.133,7.602c0.842,2.857,1.266,5.732,1.266,8.625c0,2.475-0.365,4.815-1.1,7.023
	c-0.732,2.209-1.783,4.175-3.141,5.875c-1.359,1.7-2.977,3.134-4.852,4.283s-3.949,1.892-6.224,2.232l0.217,0.26
	c0.517-0.083,1.725,0.175,3.632,0.767c1.908,0.601,3.908,1.726,6.01,3.383c2.092,1.659,3.967,3.959,5.615,6.9
	c1.65,2.934,2.484,6.7,2.484,11.3c0,4.175-0.658,7.834-1.984,10.982c-1.324,3.149-3.174,5.81-5.566,7.983
	c-2.391,2.175-5.275,3.808-8.65,4.916c-3.375,1.108-7.125,1.659-11.241,1.659h-31.517V222.357z M414.007,263.774
	c6.683,0,11.684-1.726,14.993-5.184c3.309-3.458,4.957-7.991,4.957-13.625c0-3.325-0.549-6.116-1.648-8.375
	c-1.102-2.258-2.568-4.092-4.408-5.5c-1.834-1.408-3.951-2.408-6.343-3.008c-2.383-0.602-4.9-0.893-7.55-0.893h-26.675v36.583
	L414.007,263.774L414.007,263.774z M413.999,308.732c7.05,0,12.583-1.726,16.583-5.175c4-3.45,6.01-8.625,6.01-15.533
	c0-3.917-0.701-7.134-2.092-9.649c-1.393-2.518-3.176-4.491-5.342-5.941c-2.168-1.45-4.591-2.45-7.275-3.009
	c-2.684-0.55-5.309-0.833-7.875-0.833h-26.667v40.133h26.658V308.732z"/>
<path fill="#FFFFFF" d="M458.398,262.448h0.334c0.518-2.134,1.451-4.134,2.809-6.009c1.359-1.875,3.018-3.491,4.959-4.856
	c1.949-1.358,4.115-2.409,6.5-3.135c2.391-0.725,4.865-1.042,7.441-0.958v4.858c-2.209-0.342-4.725-0.084-7.551,0.767
	c-2.832,0.851-5.533,2.726-8.107,5.625c-1.025,1.274-1.934,2.518-2.701,3.708c-0.773,1.191-1.416,2.518-1.934,3.958
	c-0.516,1.45-0.916,3.067-1.207,4.858c-0.293,1.792-0.475,3.917-0.551,6.392v35.908h-4.166v-65.666h4.166v14.55H458.398z"/>
<path fill="#FFFFFF" d="M487.666,281.423v0.767c0,3.834,0.441,7.492,1.324,10.977c0.885,3.491,2.191,6.55,3.918,9.19
	c1.732,2.642,3.898,4.726,6.516,6.25c2.609,1.533,5.65,2.3,9.109,2.3c5.666,0,10.148-1.732,13.467-5.19
	c3.307-3.468,5.592-8.275,6.842-14.425h4.166c-1.25,7.698-3.959,13.6-8.117,17.707c-4.156,4.108-9.656,6.158-16.508,6.158
	c-4.189,0-7.857-0.875-10.982-2.625s-5.74-4.134-7.842-7.167c-2.102-3.023-3.658-6.607-4.691-10.748
	c-1.033-4.135-1.549-8.593-1.549-13.367c0-4.608,0.531-9.018,1.6-13.241c1.066-4.226,2.666-7.934,4.801-11.125
	c2.133-3.2,4.799-5.759,8-7.675c3.199-1.917,6.967-2.884,11.307-2.884c3.977,0,7.484,0.857,10.533,2.559
	c3.051,1.708,5.609,4.033,7.668,6.983c2.059,2.948,3.625,6.365,4.691,10.25c1.066,3.883,1.6,8.05,1.6,12.49
	c0,0.426-0.016,0.917-0.041,1.476c-0.033,0.559-0.043,1-0.043,1.342L487.666,281.423L487.666,281.423z M529.265,277.182
	c-0.15-3.583-0.666-6.975-1.549-10.175c-0.885-3.2-2.193-6.017-3.918-8.45c-1.732-2.434-3.824-4.375-6.291-5.825
	c-2.467-1.449-5.283-2.175-8.451-2.175c-3.383,0-6.365,0.75-8.941,2.241c-2.574,1.492-4.75,3.459-6.516,5.892
	c-1.768,2.435-3.125,5.269-4.084,8.51c-0.957,3.24-1.549,6.574-1.766,9.982H529.265z"/>
<path fill="#FFFFFF" d="M628.332,252.132h-12.35v45.833c0,2.642,0.258,4.725,0.775,6.258c0.516,1.533,1.299,2.7,2.365,3.509
	c1.068,0.808,2.352,1.3,3.859,1.467c1.508,0.175,3.25,0.216,5.23,0.125v4.241c-2.133,0.167-4.207,0.15-6.225-0.066
	c-2.025-0.217-3.799-0.851-5.342-1.917c-1.541-1.065-2.766-2.657-3.684-4.792c-0.916-2.133-1.299-5.065-1.148-8.815v-45.841h-10.477
	v-4.242h10.477v-20.508h4.166v20.508h12.35v4.241H628.332z"/>
<path fill="#FFFFFF" d="M642.548,222.357v39.602h0.258c0.734-2.477,1.775-4.676,3.135-6.602c1.357-1.925,2.932-3.565,4.732-4.934
	c1.801-1.366,3.758-2.393,5.893-3.074c2.125-0.684,4.291-1.024,6.5-1.024c3.299,0,6.107,0.467,8.424,1.407
	c2.309,0.941,4.201,2.176,5.666,3.708c1.467,1.534,2.625,3.26,3.467,5.177c0.842,1.915,1.451,3.857,1.818,5.815
	c0.365,1.958,0.582,3.858,0.658,5.691c0.074,1.834,0.107,3.434,0.107,4.792v40.657h-4.166V272.04c0-1.617-0.109-3.658-0.334-6.135
	c-0.217-2.475-0.867-4.833-1.936-7.092c-1.064-2.258-2.684-4.199-4.85-5.815s-5.166-2.426-8.98-2.426
	c-3.234,0-6.104,0.685-8.604,2.051s-4.633,3.259-6.391,5.684c-1.768,2.425-3.109,5.325-4.025,8.691
	c-0.916,3.367-1.375,7.05-1.375,11.059v35.533h-4.166v-91.233H642.548z"/>
<path fill="#FFFFFF" d="M699.832,281.423v0.767c0,3.834,0.441,7.492,1.324,10.977c0.885,3.491,2.193,6.55,3.918,9.19
	c1.732,2.642,3.9,4.726,6.516,6.25c2.609,1.533,5.65,2.3,9.109,2.3c5.666,0,10.15-1.732,13.467-5.19
	c3.309-3.468,5.592-8.275,6.842-14.425h4.166c-1.25,7.698-3.959,13.6-8.117,17.707c-4.158,4.108-9.658,6.158-16.508,6.158
	c-4.189,0-7.859-0.875-10.984-2.625s-5.738-4.134-7.84-7.167c-2.102-3.023-3.658-6.607-4.691-10.748
	c-1.033-4.135-1.551-8.593-1.551-13.367c0-4.608,0.533-9.018,1.602-13.241c1.064-4.226,2.666-7.934,4.801-11.125
	c2.133-3.2,4.799-5.759,8-7.675c3.199-1.917,6.967-2.884,11.309-2.884c3.975,0,7.482,0.857,10.533,2.559
	c3.049,1.708,5.607,4.033,7.666,6.983c2.059,2.948,3.625,6.365,4.691,10.25c1.064,3.883,1.6,8.05,1.6,12.49
	c0,0.426-0.016,0.917-0.041,1.476c-0.033,0.559-0.041,1-0.041,1.342L699.832,281.423L699.832,281.423z M741.431,277.182
	c-0.15-3.583-0.666-6.975-1.549-10.175c-0.885-3.2-2.191-6.017-3.918-8.45c-1.732-2.434-3.824-4.375-6.291-5.825
	c-2.467-1.449-5.283-2.175-8.449-2.175c-3.385,0-6.367,0.75-8.943,2.241c-2.574,1.492-4.75,3.459-6.516,5.892
	c-1.768,2.435-3.125,5.269-4.084,8.51c-0.957,3.24-1.549,6.574-1.766,9.982H741.431z"/>
<g>
	<path fill="#FFFFFF" d="M681.74,324.788l11.9,30.343h-3.1l-3.701-9.45h-13.816l-3.658,9.45h-3.059l12.201-30.343H681.74z
		 M685.865,343.223l-5.867-15.56l-6.082,15.56H685.865z"/>
	<path fill="#FFFFFF" d="M710.332,324.788c1.357,0,2.592,0.192,3.691,0.575c1.1,0.384,2.051,0.95,2.842,1.7s1.4,1.667,1.824,2.742
		c0.426,1.074,0.635,2.291,0.635,3.648c0,1.358-0.217,2.575-0.635,3.65c-0.424,1.075-1.033,1.991-1.824,2.741s-1.742,1.315-2.85,1.7
		c-1.109,0.384-2.334,0.574-3.701,0.574h-10.566v13.024h-2.883v-30.341h13.467V324.788z M709.689,339.648
		c2.01,0,3.643-0.508,4.885-1.524c1.25-1.017,1.865-2.574,1.865-4.675c0-2.092-0.625-3.649-1.865-4.676
		c-1.25-1.017-2.875-1.523-4.885-1.523h-9.941v12.398H709.689L709.689,339.648z"/>
	<path fill="#FFFFFF" d="M736.681,324.788c1.359,0,2.592,0.192,3.691,0.575c1.102,0.384,2.051,0.95,2.852,1.7
		c0.791,0.75,1.398,1.667,1.824,2.742c0.426,1.074,0.633,2.291,0.633,3.648c0,1.358-0.217,2.575-0.633,3.65
		c-0.426,1.075-1.033,1.991-1.824,2.741c-0.793,0.75-1.742,1.315-2.852,1.7c-1.107,0.384-2.332,0.574-3.699,0.574h-10.574v13.024
		h-2.885v-30.341h13.467V324.788z M736.041,339.648c2.008,0,3.641-0.508,4.883-1.524c1.25-1.017,1.867-2.574,1.867-4.675
		c0-2.092-0.625-3.649-1.867-4.676c-1.25-1.017-2.875-1.523-4.883-1.523h-9.941v12.398H736.041L736.041,339.648z"/>
</g>
<path fill="#FFFFFF" d="M586.566,301.281l-0.26,0.008c-0.766,1.959-1.865,3.81-3.316,5.552c-1.441,1.74-3.207,3.291-5.291,4.657
	c-2.084,1.358-4.441,2.426-7.074,3.191c-2.635,0.767-5.525,1.15-8.668,1.15c-6.967,0-12.357-1.51-16.184-4.525
	c-3.824-3.017-5.732-7.675-5.732-13.967c0-3.824,0.766-6.949,2.291-9.374c1.525-2.426,3.459-4.334,5.793-5.742
	c2.332-1.399,4.924-2.399,7.766-3c2.844-0.592,5.584-1.017,8.219-1.274l7.518-0.643c3.482-0.258,6.215-0.658,8.207-1.208
	s3.5-1.315,4.525-2.292c1.018-0.975,1.656-2.232,1.906-3.767s0.385-3.441,0.385-5.741c0-1.783-0.344-3.441-1.018-4.975
	c-0.676-1.534-1.742-2.894-3.184-4.084c-1.441-1.191-3.316-2.125-5.609-2.81c-2.291-0.675-5.1-1.017-8.408-1.017
	c-5.855,0-10.6,1.45-14.207,4.342c-3.607,2.9-5.584,7.283-5.926,13.158H543.5c0.342-7.241,2.648-12.675,6.941-16.3
	c4.283-3.625,10.375-5.435,18.273-5.435c7.9,0,13.65,1.551,17.26,4.659c3.607,3.1,5.416,7.166,5.416,12.183v38.133
	c0,0.935,0.018,1.858,0.066,2.792c0.041,0.935,0.189,1.775,0.439,2.542c0.25,0.768,0.678,1.375,1.275,1.843
	c0.592,0.467,1.441,0.698,2.551,0.698c0.852,0,2.033-0.133,3.566-0.392v4.134c-1.275,0.325-2.592,0.491-3.951,0.491
	c-1.957,0-3.5-0.25-4.646-0.767c-1.145-0.509-2.012-1.191-2.604-2.033c-0.592-0.851-0.99-1.842-1.207-2.991
	c-0.209-1.15-0.314-2.4-0.314-3.759V301.281L586.566,301.281z M586.566,277.057c-1.191,1.441-3,2.425-5.418,2.935
	c-2.424,0.508-5.125,0.892-8.092,1.148l-8.158,0.767c-2.383,0.26-4.758,0.617-7.141,1.085c-2.383,0.466-4.525,1.25-6.441,2.357
	c-1.918,1.107-3.467,2.616-4.65,4.524c-1.191,1.917-1.783,4.399-1.783,7.458c0,4.851,1.525,8.44,4.592,10.774
	c3.061,2.342,7.268,3.508,12.625,3.508c5.525,0,9.9-1,13.133-3c3.234-2,5.691-4.291,7.395-6.883c1.699-2.592,2.783-5.1,3.25-7.524
	c0.465-2.426,0.699-4.059,0.699-4.908v-12.241H586.566z"/>
<path fill="#FFFFFF" d="M93.658,228.14c5.75,0,11.325,1.125,16.566,3.342c5.067,2.143,9.625,5.217,13.533,9.125
	c3.909,3.908,6.983,8.467,9.125,13.533c2.217,5.25,3.342,10.825,3.342,16.566s-1.125,11.324-3.342,16.566
	c-2.142,5.066-5.216,9.625-9.125,13.533c-3.908,3.908-8.466,6.981-13.533,9.125c-5.25,2.216-10.825,3.341-16.566,3.341
	c-5.75,0-11.325-1.125-16.567-3.341c-5.066-2.144-9.625-5.217-13.533-9.125c-3.908-3.908-6.983-8.467-9.125-13.533
	c-2.217-5.242-3.341-10.825-3.341-16.566s1.125-11.324,3.341-16.566c2.142-5.065,5.217-9.625,9.125-13.533
	c3.908-3.908,8.467-6.982,13.533-9.125C82.333,229.265,87.908,228.14,93.658,228.14 M93.658,223.465
	c-26.092,0-47.242,21.149-47.242,47.242c0,26.091,21.15,47.24,47.242,47.24c26.091,0,47.242-21.149,47.242-47.24
	C140.9,244.615,119.75,223.465,93.658,223.465L93.658,223.465z"/>
<path fill="#FFFFFF" d="M93.658,237.698c4.458,0,8.783,0.875,12.85,2.593c3.933,1.667,7.458,4.042,10.491,7.074
	c3.034,3.033,5.417,6.566,7.075,10.491c1.717,4.066,2.592,8.393,2.592,12.851c0,4.459-0.875,8.783-2.592,12.851
	c-1.667,3.935-4.042,7.458-7.075,10.491s-6.566,5.417-10.491,7.074c-4.067,1.718-8.392,2.593-12.85,2.593s-8.783-0.875-12.85-2.593
	c-3.933-1.667-7.458-4.041-10.492-7.074c-3.034-3.033-5.417-6.566-7.075-10.491c-1.717-4.065-2.592-8.392-2.592-12.851
	c0-4.458,0.875-8.783,2.592-12.851c1.667-3.934,4.042-7.458,7.075-10.491c3.033-3.032,6.567-5.417,10.492-7.074
	C84.875,238.573,89.2,237.698,93.658,237.698 M93.658,234.082c-20.233,0-36.633,16.398-36.633,36.633
	c0,20.233,16.4,36.633,36.633,36.633c20.233,0,36.633-16.398,36.633-36.633S113.892,234.082,93.658,234.082L93.658,234.082z"/>
<path fill="#FFFFFF" d="M93.658,246.215c3.308,0,6.517,0.649,9.533,1.925c2.917,1.233,5.533,3,7.783,5.25s4.017,4.867,5.25,7.783
	c1.275,3.017,1.925,6.226,1.925,9.533c0,3.309-0.65,6.518-1.925,9.533c-1.233,2.916-3,5.533-5.25,7.783s-4.867,4.018-7.783,5.25
	c-3.017,1.274-6.225,1.925-9.533,1.925c-3.309,0-6.517-0.649-9.533-1.925c-2.917-1.232-5.534-3-7.784-5.25s-4.017-4.867-5.25-7.783
	c-1.275-3.017-1.925-6.226-1.925-9.533c0-3.309,0.65-6.518,1.925-9.533c1.233-2.916,3-5.533,5.25-7.783s4.867-4.017,7.784-5.25
	C87.142,246.865,90.35,246.215,93.658,246.215 M93.658,243.531c-15.008,0-27.184,12.167-27.184,27.185
	c0,15.017,12.167,27.184,27.184,27.184c15.017,0,27.183-12.167,27.183-27.184C120.841,255.698,108.667,243.531,93.658,243.531
	L93.658,243.531z"/>
<path fill="#FFFFFF" d="M93.658,246.323c3.292,0,6.483,0.643,9.492,1.917c2.9,1.226,5.508,2.983,7.75,5.226
	c2.242,2.242,4,4.85,5.225,7.75c1.275,3.009,1.917,6.2,1.917,9.491c0,3.292-0.642,6.482-1.917,9.492
	c-1.225,2.899-2.983,5.508-5.225,7.75c-2.242,2.24-4.85,4-7.75,5.225c-3.008,1.275-6.2,1.917-9.492,1.917s-6.483-0.642-9.492-1.917
	c-2.9-1.225-5.508-2.983-7.75-5.225c-2.242-2.242-4-4.851-5.225-7.75c-1.275-3.01-1.917-6.2-1.917-9.492
	c0-3.291,0.642-6.482,1.917-9.491c1.225-2.9,2.983-5.508,5.225-7.75c2.242-2.241,4.85-4,7.75-5.225
	C87.167,246.974,90.366,246.323,93.658,246.323 M93.658,243.649c-14.95,0-27.059,12.116-27.059,27.06
	c0,14.94,12.117,27.058,27.059,27.058c14.941,0,27.058-12.116,27.058-27.058C120.716,255.765,108.6,243.649,93.658,243.649
	L93.658,243.649z"/>
<path fill="#FFFFFF" d="M93.658,253.673c2.3,0,4.533,0.45,6.633,1.342c2.025,0.858,3.85,2.084,5.417,3.65
	c1.567,1.565,2.792,3.392,3.65,5.417c0.892,2.1,1.342,4.333,1.342,6.633s-0.45,4.533-1.342,6.634
	c-0.858,2.024-2.083,3.851-3.65,5.416c-1.566,1.566-3.392,2.792-5.417,3.65c-2.1,0.892-4.333,1.342-6.633,1.342
	c-2.3,0-4.533-0.45-6.633-1.342c-2.025-0.858-3.85-2.084-5.417-3.65c-1.566-1.566-2.792-3.392-3.65-5.416
	c-0.892-2.101-1.341-4.334-1.341-6.634s0.45-4.533,1.341-6.633c0.858-2.025,2.083-3.852,3.65-5.417
	c1.567-1.566,3.392-2.792,5.417-3.65C89.125,254.123,91.358,253.673,93.658,253.673 M93.658,251.807
	c-10.442,0-18.908,8.467-18.908,18.908c0,10.44,8.466,18.908,18.908,18.908c10.441,0,18.908-8.468,18.908-18.908
	C112.566,260.274,104.1,251.807,93.658,251.807L93.658,251.807z"/>
<path fill="#FFFFFF" d="M93.658,253.781c2.283,0,4.5,0.45,6.592,1.334c2.017,0.851,3.825,2.074,5.383,3.634
	c1.558,1.559,2.775,3.367,3.633,5.384c0.883,2.083,1.333,4.3,1.333,6.592c0,2.291-0.45,4.5-1.333,6.591
	c-0.85,2.018-2.075,3.825-3.633,5.385c-1.559,1.559-3.367,2.774-5.383,3.633c-2.083,0.884-4.3,1.334-6.592,1.334
	c-2.283,0-4.5-0.45-6.592-1.334c-2.017-0.851-3.825-2.074-5.383-3.633c-1.558-1.56-2.775-3.367-3.633-5.385
	c-0.883-2.083-1.333-4.3-1.333-6.591c0-2.292,0.45-4.5,1.333-6.592c0.85-2.017,2.075-3.825,3.633-5.384
	c1.559-1.56,3.367-2.774,5.383-3.633C89.15,254.232,91.366,253.781,93.658,253.781 M93.658,251.923
	c-10.375,0-18.792,8.417-18.792,18.792s8.417,18.792,18.792,18.792s18.792-8.417,18.792-18.792S104.033,251.923,93.658,251.923
	L93.658,251.923z"/>
<path fill="#FFFFFF" d="M93.658,260.065c2.842,0,5.517,1.108,7.533,3.117c2.008,2.008,3.117,4.685,3.117,7.533
	c0,2.842-1.108,5.517-3.117,7.533c-2.008,2.009-4.683,3.116-7.533,3.116c-2.842,0-5.517-1.107-7.533-3.116
	c-2.008-2.009-3.117-4.685-3.117-7.533c0-2.842,1.108-5.518,3.117-7.533C88.133,261.173,90.808,260.065,93.658,260.065
	 M93.658,258.899c-6.525,0-11.817,5.291-11.817,11.816s5.292,11.815,11.817,11.815c6.525,0,11.816-5.29,11.816-11.815
	S100.183,258.899,93.658,258.899L93.658,258.899z"/>
<path fill="#FFFFFF" d="M93.658,260.173c2.816,0,5.467,1.101,7.458,3.092c1.992,1.992,3.092,4.643,3.092,7.459
	s-1.1,5.466-3.092,7.458c-1.991,1.991-4.642,3.092-7.458,3.092c-2.817,0-5.467-1.101-7.458-3.092
	c-1.992-1.992-3.092-4.642-3.092-7.458s1.1-5.467,3.092-7.459C88.191,261.265,90.841,260.173,93.658,260.173 M93.658,259.015
	c-6.458,0-11.7,5.242-11.7,11.7s5.242,11.7,11.7,11.7s11.7-5.242,11.7-11.7C105.358,264.248,100.116,259.015,93.658,259.015
	L93.658,259.015z"/>
<path fill="#FFFFFF" d="M93.658,265.39c2.933,0,5.325,2.393,5.325,5.325s-2.392,5.325-5.325,5.325c-2.934,0-5.325-2.393-5.325-5.325
	C88.333,267.774,90.716,265.39,93.658,265.39 M93.658,264.807c-3.267,0-5.908,2.643-5.908,5.908s2.642,5.908,5.908,5.908
	c3.266,0,5.908-2.643,5.908-5.908S96.917,264.807,93.658,264.807L93.658,264.807z"/>
</svg>
