<?xml version="1.0" encoding="utf-8"?>
<!-- Generator: Adobe Illustrator 15.0.0, SVG Export Plug-In . SVG Version: 6.00 Build 0)  -->
<!DOCTYPE svg PUBLIC "-//W3C//DTD SVG 1.1//EN" "http://www.w3.org/Graphics/SVG/1.1/DTD/svg11.dtd">
<svg version="1.1" id="Warstwa_1" xmlns="http://www.w3.org/2000/svg" xmlns:xlink="http://www.w3.org/1999/xlink" x="0px" y="0px"
	 width="214px" height="215px" viewBox="0 0 214 215" enable-background="new 0 0 214 215" xml:space="preserve">
<path fill="#FFFFFF" d="M205.75,86.907c-1.334-6.491-3.316-12.883-5.893-18.991c-2.533-5.991-5.675-11.775-9.324-17.184
	c-3.617-5.35-7.769-10.383-12.342-14.958c-4.576-4.575-9.609-8.725-14.959-12.342c-5.408-3.649-11.185-6.792-17.185-9.325
	c-6.106-2.583-12.49-4.566-18.991-5.892c-6.658-1.366-13.517-2.058-20.375-2.058c-6.857,0-13.707,0.691-20.375,2.058
	c-6.492,1.334-12.883,3.317-18.992,5.892c-5.991,2.533-11.774,5.676-17.184,9.325c-5.35,3.617-10.383,7.767-14.958,12.342
	s-8.725,9.608-12.342,14.958c-3.649,5.408-6.792,11.184-9.325,17.184c-2.583,6.108-4.566,12.491-5.893,18.991
	c-1.366,6.659-2.057,13.517-2.057,20.375c0,6.859,0.69,13.708,2.057,20.375c1.334,6.492,3.318,12.885,5.893,18.992
	c2.533,5.992,5.676,11.774,9.325,17.184c3.617,5.352,7.767,10.384,12.342,14.959c4.575,4.574,9.608,8.725,14.958,12.342
	c5.409,3.648,11.184,6.791,17.184,9.324c6.108,2.584,12.492,4.566,18.992,5.893c6.658,1.366,13.518,2.059,20.375,2.059
	c6.858,0,13.709-0.691,20.375-2.059c6.491-1.334,12.885-3.316,18.991-5.893c5.992-2.533,11.775-5.676,17.185-9.324
	c5.35-3.617,10.383-7.768,14.959-12.342c4.573-4.575,8.725-9.607,12.342-14.959c3.649-5.408,6.791-11.184,9.324-17.184
	c2.584-6.107,4.565-12.492,5.893-18.992c1.365-6.657,2.059-13.516,2.059-20.375C207.798,100.424,207.107,93.567,205.75,86.907z
	 M53.725,150.841c5.375,3.116,11.267,4.69,17.5,4.69c6.241,0,12.125-1.582,17.5-4.69c4.5-2.608,8.574-6.217,12.449-11.032
	c6.358-7.9,11.159-17.834,15.801-27.435c4.082-8.45,8.299-17.183,13.024-23.05c2.141-2.658,4.2-4.525,6.292-5.691
	c1.859-1.042,3.725-1.525,5.875-1.525s4.018,0.483,5.875,1.525c2.092,1.166,4.15,3.033,6.291,5.691
	c4.727,5.867,8.941,14.6,13.025,23.05c3.782,7.834,7.684,15.899,12.45,22.907c-0.317,0.834-0.649,1.658-0.991,2.468
	c-1.959,4.634-4.394,9.108-7.218,13.292c-2.801,4.148-6.024,8.05-9.565,11.6c-3.551,3.551-7.451,6.768-11.601,9.566
	c-4.184,2.824-8.657,5.259-13.293,7.217c-4.717,1.992-9.657,3.525-14.674,4.559c-5.159,1.06-10.476,1.593-15.792,1.593
	s-10.633-0.533-15.792-1.593c-5.017-1.024-9.958-2.559-14.675-4.559c-4.633-1.958-9.107-4.393-13.292-7.217
	c-4.149-2.801-8.05-6.023-11.601-9.566c-3.549-3.55-6.767-7.449-9.566-11.6c-2.825-4.184-5.258-8.658-7.217-13.292
	c-1.991-4.718-3.525-9.658-4.559-14.675c-0.166-0.809-0.316-1.625-0.457-2.441c3.457,6.857,7.207,13.533,11.75,19.176
	C45.148,144.624,49.225,148.232,53.725,150.841z M159.673,63.975c-5.375-3.117-11.266-4.692-17.5-4.692
	c-6.24,0-12.125,1.584-17.5,4.692c-4.5,2.608-8.575,6.217-12.45,11.033c-6.357,7.899-11.158,17.833-15.8,27.433
	c-4.083,8.45-8.3,17.184-13.024,23.051c-2.143,2.658-4.2,4.523-6.293,5.691c-1.857,1.041-3.725,1.524-5.875,1.524
	c-2.149,0-4.017-0.483-5.875-1.524c-2.092-1.168-4.149-3.033-6.291-5.691c-4.726-5.867-8.942-14.602-13.025-23.042
	c-3.809-7.883-7.725-16-12.542-23.033c0.333-0.875,0.685-1.75,1.042-2.6c1.958-4.634,4.393-9.108,7.217-13.292
	c2.801-4.15,6.025-8.05,9.566-11.6c3.55-3.551,7.449-6.768,11.6-9.567c4.184-2.824,8.658-5.258,13.292-7.217
	c4.718-1.991,9.658-3.524,14.675-4.558c5.159-1.059,10.476-1.592,15.793-1.592c5.324,0,10.633,0.533,15.791,1.592
	c5.018,1.024,9.959,2.558,14.677,4.558c4.633,1.959,9.106,4.393,13.291,7.217c4.149,2.801,8.049,6.025,11.6,9.567
	c3.551,3.55,6.768,7.449,9.566,11.6c2.825,4.184,5.258,8.658,7.217,13.292c1.992,4.716,3.524,9.658,4.559,14.675
	c0.185,0.899,0.351,1.808,0.508,2.717c-3.457-6.858-7.207-13.542-11.758-19.192C168.25,70.192,164.173,66.583,159.673,63.975z"/>
</svg>
