<?xml version="1.0" encoding="utf-8"?>
<!-- Generator: Adobe Illustrator 19.0.0, SVG Export Plug-In . SVG Version: 6.00 Build 0)  -->
<svg version="1.1" id="Warstwa_1" xmlns="http://www.w3.org/2000/svg" xmlns:xlink="http://www.w3.org/1999/xlink" x="0px" y="0px"
	 viewBox="-479 207 483 380.3" style="enable-background:new -479 207 483 380.3;" xml:space="preserve">
<style type="text/css">
	.st0{fill:#17A6EF;}
</style>
<path class="st0" d="M-186.2,444.5c63.8,0,189,30.7,189,94.5v47.2h-378V539C-375.2,477.6-250,444.5-186.2,444.5 M-186.2,397.3
	c-52,0-94.5-42.5-94.5-94.5s42.5-94.5,94.5-94.5s94.5,42.5,94.5,94.5C-91.8,357.1-134.3,397.3-186.2,397.3 M-394.1,340.5l49.6-49.6
	l33.1,33.1l-49.6,49.6l49.6,49.6l-33.1,33.1l-49.6-49.6l-49.6,49.6l-33.1-33.1l49.6-49.6l-49.6-49.6l33.1-33.1L-394.1,340.5z"/>
</svg>
