<?xml version="1.0" encoding="utf-8"?>
<!-- Generator: Adobe Illustrator 19.0.0, SVG Export Plug-In . SVG Version: 6.00 Build 0)  -->
<svg version="1.1" id="Warstwa_1" xmlns="http://www.w3.org/2000/svg" xmlns:xlink="http://www.w3.org/1999/xlink" x="0px" y="0px"
	 viewBox="-133.3 190.4 480 378" style="enable-background:new -133.3 190.4 480 378;" xml:space="preserve">
<style type="text/css">
	.st0{fill:#FFFFFF;}
</style>
<path class="st0" d="M158.1,427.3c63.8,0,189,30.7,189,94.5V569h-378v-47.2C-30.9,460.4,94.3,427.3,158.1,427.3 M158.1,380
	c-52,0-94.5-42.5-94.5-94.5s42.5-94.5,94.5-94.5s94.5,42.5,94.5,94.5C252.5,339.9,210,380,158.1,380 M-49.8,323.3l49.6-49.6
	l33.1,33.1l-49.6,49.6L32.9,406l-33.1,33.1l-49.6-49.6l-49.6,49.6l-33.1-33.1l49.6-49.6l-49.6-49.6l33.1-33.1L-49.8,323.3z"/>
</svg>
