<?xml version="1.0" encoding="utf-8"?>
<!-- Generator: Adobe Illustrator 19.0.0, SVG Export Plug-In . SVG Version: 6.00 Build 0)  -->
<svg version="1.1" id="Warstwa_1" xmlns="http://www.w3.org/2000/svg" xmlns:xlink="http://www.w3.org/1999/xlink" x="0px" y="0px"
	 viewBox="-107 159.9 475.3 473.3" style="enable-background:new -107 159.9 475.3 473.3;" xml:space="preserve">
<style type="text/css">
	.st0{fill:#FFFFFF;}
</style>
<path class="st0" d="M204.4,377.6l-21.3,21.3c-18.9,18.9-28.3,33.1-28.3,68.5h-47.2v-11.8c0-26,9.4-49.6,28.3-66.1l28.3-30.7
	c9.4-9.4,14.2-21.3,14.2-33.1c0-26-21.3-47.2-47.2-47.2c-26,0-47.2,21.3-47.2,47.2H36.7c0-52,42.5-94.5,94.5-94.5
	c52,0,94.5,42.5,94.5,94.5C225.7,346.9,216.2,365.8,204.4,377.6 M154.8,561.9h-47.2v-47.2h47.2V561.9z M131.2,160.3
	C1.3,160.3-105,266.6-105,396.5c0,129.9,106.3,236.2,236.2,236.2c129.9,0,236.2-106.3,236.2-236.2
	C367.4,266.6,261.1,160.3,131.2,160.3z"/>
</svg>
