<?xml version="1.0" encoding="utf-8"?>
<!-- Generator: Adobe Illustrator 19.0.0, SVG Export Plug-In . SVG Version: 6.00 Build 0)  -->
<svg version="1.1" id="Warstwa_1" xmlns="http://www.w3.org/2000/svg" xmlns:xlink="http://www.w3.org/1999/xlink" x="0px" y="0px"
	 viewBox="-85.8 163.7 473.2 473.3" style="enable-background:new -85.8 163.7 473.2 473.3;" xml:space="preserve">
<style type="text/css">
	.st0{fill:#FFFFFF;}
</style>
<path class="st0" d="M340.2,400c0-103.9-85-189-189-189c-103.9,0-189,85-189,189s85,189,189,189C255.1,589,340.2,506.3,340.2,400
	 M387.4,400c0,129.9-106.3,236.2-236.2,236.2C21.3,636.3-85,530-85,400c0-129.9,106.3-236.2,236.2-236.2
	C281.1,163.8,387.4,270.1,387.4,400 M104,341c0,18.9-16.5,35.4-35.4,35.4S33.1,359.9,33.1,341c0-18.9,16.5-35.4,35.4-35.4
	S104,322.1,104,341 M269.3,341c0,18.9-16.5,35.4-35.4,35.4c-18.9,0-35.4-16.5-35.4-35.4c0-18.9,16.5-35.4,35.4-35.4
	C252.8,305.5,269.3,322.1,269.3,341 M151.2,525.2c-42.5,0-78-16.5-99.2-42.5l33.1-33.1c9.4,16.5,35.4,28.3,66.1,28.3
	c30.7,0,54.3-11.8,66.1-28.3l33.1,33.1C229.1,506.3,193.7,525.2,151.2,525.2z"/>
</svg>
