<?xml version="1.0" encoding="utf-8"?>
<!-- Generator: Adobe Illustrator 15.0.0, SVG Export Plug-In . SVG Version: 6.00 Build 0)  -->
<!DOCTYPE svg PUBLIC "-//W3C//DTD SVG 1.1//EN" "http://www.w3.org/Graphics/SVG/1.1/DTD/svg11.dtd">
<svg version="1.1" id="Warstwa_1" xmlns="http://www.w3.org/2000/svg" xmlns:xlink="http://www.w3.org/1999/xlink" x="0px" y="0px"
	 width="779px" height="210px" viewBox="15 180 779 210" enable-background="new 15 180 779 210" xml:space="preserve">
<path fill="#17A6EF" d="M185.683,310.906c4.483,0,7.925-0.85,10.316-2.559c2.392-1.701,4.1-3.875,5.133-6.52
	c1.025-2.641,1.6-5.6,1.708-8.883c0.108-3.273,0.167-6.49,0.167-9.648v-60.941h4.85v62.811c0,1.791-0.017,3.791-0.059,6.008
	c-0.033,2.217-0.258,4.459-0.658,6.717s-1.025,4.459-1.875,6.584c-0.842,2.133-2.075,4.023-3.691,5.689
	c-1.617,1.666-3.659,3.01-6.125,4.025c-2.467,1.016-5.534,1.533-9.208,1.533c-5.292,0-9.45-0.984-12.467-2.936
	c-3.017-1.959-5.242-4.467-6.675-7.531c-1.433-3.066-2.317-6.428-2.65-10.092c-0.333-3.658-0.492-7.191-0.492-10.602h4.85
	c-0.217,3.408-0.184,6.691,0.108,9.842s1.025,5.941,2.208,8.375c1.175,2.424,2.925,4.393,5.242,5.883
	C178.675,310.156,181.783,310.906,185.683,310.906z"/>
<path fill="#17A6EF" d="M268.458,313.564h-4.167v-14.1l-0.258,0.084c-0.733,2.475-1.783,4.666-3.142,6.582
	c-1.358,1.918-2.934,3.559-4.733,4.926c-1.8,1.367-3.758,2.383-5.892,3.064c-2.134,0.686-4.292,1.025-6.5,1.025
	c-3.308,0-6.108-0.467-8.425-1.408c-2.317-0.934-4.2-2.176-5.667-3.709c-1.466-1.533-2.625-3.258-3.466-5.174
	c-0.842-1.918-1.45-3.859-1.817-5.816c-0.367-1.958-0.592-3.857-0.658-5.689c-0.075-1.834-0.108-3.435-0.108-4.793v-40.658h4.167
	v41.533c0,1.7,0.108,3.769,0.333,6.2c0.217,2.425,0.867,4.772,1.925,7.032c1.067,2.26,2.667,4.199,4.8,5.816
	c2.133,1.615,5.142,2.424,9.042,2.424c3.158,0,6.008-0.684,8.542-2.041c2.533-1.367,4.684-3.258,6.45-5.689
	c1.766-2.436,3.108-5.326,4.025-8.691s1.375-7.051,1.375-11.06v-35.524h4.167v65.666H268.458L268.458,313.564z"/>
<path fill="#17A6EF" d="M285.174,291.673c0.15,3.075,0.733,5.792,1.758,8.142s2.367,4.359,4.017,6.025
	c1.65,1.666,3.575,2.926,5.783,3.781c2.2,0.859,4.583,1.283,7.159,1.283c1.833,0,3.8-0.189,5.892-0.574
	c2.091-0.383,4.033-1.092,5.833-2.107c1.8-1.023,3.284-2.449,4.458-4.283c1.174-1.832,1.767-4.158,1.767-6.967
	c0-3.666-0.958-6.433-2.867-8.316c-1.908-1.875-4.316-3.323-7.216-4.35c-2.9-1.025-6.025-1.851-9.358-2.492
	c-3.342-0.642-6.458-1.6-9.358-2.875c-2.9-1.272-5.309-3.09-7.217-5.433c-1.908-2.342-2.867-5.774-2.867-10.3
	c0-3.242,0.625-5.941,1.875-8.125c1.25-2.178,2.85-3.9,4.792-5.186c1.95-1.273,4.133-2.189,6.558-2.75
	c2.425-0.559,4.85-0.834,7.275-0.834c2.942,0,5.692,0.385,8.267,1.15c2.567,0.768,4.792,2.01,6.667,3.717
	c1.875,1.709,3.342,3.883,4.409,6.533c1.066,2.648,1.6,5.85,1.6,9.607h-4.167c0-2.982-0.425-5.543-1.267-7.676
	c-0.842-2.134-2.025-3.856-3.525-5.184c-1.508-1.325-3.292-2.3-5.35-2.941c-2.058-0.642-4.267-0.959-6.617-0.959
	c-1.917,0-3.841,0.217-5.792,0.645c-1.95,0.425-3.692,1.148-5.242,2.175c-1.542,1.022-2.816,2.343-3.808,3.968
	c-0.992,1.615-1.492,3.582-1.492,5.883c0,2.643,0.55,4.774,1.65,6.393c1.1,1.615,2.55,2.925,4.35,3.898
	c1.8,0.983,3.816,1.769,6.058,2.367c2.242,0.6,4.5,1.19,6.775,1.791c2.792,0.6,5.417,1.301,7.875,2.108s4.592,1.916,6.392,3.323
	c1.8,1.408,3.208,3.218,4.242,5.435c1.025,2.218,1.542,5.033,1.542,8.44c0,3.584-0.7,6.525-2.092,8.824
	c-1.392,2.301-3.158,4.158-5.283,5.566c-2.125,1.406-4.492,2.385-7.1,2.941c-2.6,0.549-5.15,0.832-7.642,0.832
	c-3.225,0-6.217-0.492-8.967-1.475s-5.15-2.477-7.208-4.492c-2.05-2.008-3.667-4.467-4.841-7.375
	c-1.175-2.908-1.8-6.283-1.867-10.133h4.15L285.174,291.673L285.174,291.673z"/>
<path fill="#17A6EF" d="M358.316,252.132h-12.35v45.833c0,2.643,0.258,4.725,0.775,6.258c0.517,1.533,1.3,2.701,2.367,3.51
	c1.067,0.807,2.35,1.299,3.858,1.467c1.508,0.174,3.25,0.215,5.233,0.125v4.24c-2.133,0.168-4.208,0.15-6.225-0.066
	c-2.025-0.217-3.8-0.85-5.342-1.916c-1.542-1.064-2.767-2.656-3.683-4.793c-0.917-2.133-1.3-5.064-1.15-8.814v-45.841h-10.475
	v-4.241h10.475v-20.509h4.167v20.509h12.35V252.132L358.316,252.132z"/>
<path fill="#17A6EF" d="M382.482,222.357h31.517c4.7,0,8.634,0.685,11.792,2.041c3.158,1.367,5.691,3.149,7.609,5.367
	c1.907,2.217,3.282,4.75,4.133,7.602c0.842,2.857,1.266,5.732,1.266,8.625c0,2.475-0.365,4.814-1.1,7.023
	c-0.732,2.209-1.783,4.174-3.142,5.875c-1.358,1.699-2.977,3.133-4.852,4.282s-3.949,1.892-6.224,2.231l0.217,0.261
	c0.517-0.083,1.725,0.175,3.632,0.767c1.908,0.602,3.908,1.727,6.01,3.383c2.092,1.66,3.967,3.959,5.615,6.9
	c1.65,2.934,2.484,6.7,2.484,11.301c0,4.174-0.658,7.834-1.984,10.98c-1.324,3.15-3.174,5.811-5.566,7.984
	c-2.391,2.174-5.274,3.807-8.649,4.916c-3.375,1.107-7.125,1.658-11.241,1.658h-31.517V222.357z M414.007,263.773
	c6.683,0,11.685-1.726,14.993-5.184s4.957-7.99,4.957-13.625c0-3.324-0.549-6.115-1.648-8.375c-1.102-2.258-2.567-4.092-4.407-5.5
	c-1.834-1.408-3.951-2.408-6.343-3.008c-2.384-0.602-4.9-0.893-7.551-0.893h-26.675v36.582L414.007,263.773L414.007,263.773z
	 M413.999,308.732c7.05,0,12.583-1.727,16.583-5.176s6.01-8.625,6.01-15.533c0-3.916-0.701-7.133-2.092-9.648
	c-1.393-2.518-3.176-4.49-5.342-5.941c-2.168-1.449-4.591-2.449-7.275-3.009c-2.684-0.55-5.309-0.833-7.875-0.833h-26.667v40.133
	h26.658V308.732z"/>
<path fill="#17A6EF" d="M458.398,262.447h0.334c0.518-2.133,1.45-4.133,2.809-6.008c1.359-1.875,3.018-3.492,4.959-4.856
	c1.949-1.358,4.115-2.409,6.5-3.136c2.391-0.725,4.865-1.041,7.441-0.957v4.857c-2.209-0.342-4.726-0.084-7.552,0.768
	c-2.832,0.851-5.532,2.726-8.106,5.625c-1.025,1.273-1.935,2.518-2.701,3.707c-0.773,1.191-1.416,2.519-1.934,3.959
	c-0.517,1.449-0.916,3.066-1.207,4.857c-0.293,1.793-0.476,3.918-0.552,6.393v35.908h-4.166v-65.666h4.166v14.549H458.398z"/>
<path fill="#17A6EF" d="M487.666,281.423v0.767c0,3.834,0.441,7.492,1.324,10.978c0.885,3.491,2.19,6.55,3.918,9.19
	c1.731,2.641,3.897,4.725,6.516,6.25c2.609,1.533,5.65,2.299,9.109,2.299c5.666,0,10.147-1.73,13.467-5.189
	c3.307-3.469,5.592-8.275,6.842-14.425h4.166c-1.25,7.698-3.959,13.601-8.117,17.706c-4.155,4.109-9.655,6.158-16.508,6.158
	c-4.188,0-7.856-0.875-10.981-2.625s-5.74-4.133-7.843-7.166c-2.102-3.023-3.657-6.607-4.69-10.748
	c-1.033-4.135-1.549-8.594-1.549-13.367c0-4.607,0.53-9.018,1.6-13.241c1.066-4.226,2.666-7.934,4.801-11.125
	c2.133-3.2,4.799-5.759,8-7.675c3.199-1.917,6.967-2.884,11.308-2.884c3.977,0,7.483,0.856,10.532,2.559
	c3.052,1.708,5.609,4.033,7.669,6.983c2.059,2.947,3.625,6.365,4.69,10.25c1.066,3.883,1.6,8.05,1.6,12.49
	c0,0.426-0.016,0.916-0.041,1.476c-0.032,0.56-0.043,1-0.043,1.342L487.666,281.423L487.666,281.423z M529.265,277.182
	c-0.149-3.582-0.666-6.975-1.549-10.175c-0.885-3.2-2.192-6.017-3.918-8.45c-1.731-2.434-3.824-4.375-6.291-5.824
	s-5.283-2.176-8.451-2.176c-3.383,0-6.364,0.75-8.94,2.241c-2.574,1.492-4.75,3.459-6.517,5.892
	c-1.768,2.436-3.125,5.27-4.084,8.511c-0.957,3.239-1.549,6.573-1.766,9.981H529.265z"/>
<path fill="#17A6EF" d="M628.332,252.132h-12.35v45.833c0,2.643,0.258,4.725,0.774,6.258s1.299,2.701,2.365,3.51
	c1.068,0.807,2.352,1.299,3.859,1.467c1.508,0.174,3.25,0.215,5.229,0.125v4.24c-2.133,0.168-4.207,0.15-6.225-0.066
	c-2.025-0.217-3.799-0.85-5.342-1.916c-1.541-1.064-2.767-2.656-3.685-4.793c-0.916-2.133-1.299-5.064-1.147-8.814v-45.841h-10.478
	v-4.241h10.478v-20.509h4.166v20.509h12.35v4.24L628.332,252.132L628.332,252.132z"/>
<path fill="#17A6EF" d="M642.548,222.357v39.602h0.258c0.734-2.477,1.775-4.676,3.136-6.602c1.356-1.926,2.932-3.565,4.731-4.935
	c1.801-1.366,3.758-2.394,5.894-3.073c2.125-0.685,4.291-1.025,6.5-1.025c3.299,0,6.106,0.468,8.424,1.408
	c2.309,0.94,4.201,2.176,5.666,3.707c1.467,1.535,2.625,3.26,3.467,5.178c0.842,1.914,1.451,3.857,1.818,5.814
	c0.364,1.959,0.582,3.858,0.657,5.691c0.074,1.834,0.107,3.434,0.107,4.792v40.657h-4.166V272.04c0-1.617-0.109-3.658-0.334-6.136
	c-0.217-2.475-0.867-4.832-1.937-7.092c-1.063-2.258-2.684-4.199-4.85-5.814c-2.166-1.616-5.166-2.426-8.979-2.426
	c-3.234,0-6.104,0.685-8.604,2.051c-2.5,1.365-4.633,3.259-6.391,5.684c-1.769,2.426-3.109,5.325-4.025,8.691
	c-0.916,3.367-1.375,7.05-1.375,11.059v35.533h-4.166v-91.232H642.548L642.548,222.357z"/>
<path fill="#17A6EF" d="M699.832,281.423v0.767c0,3.834,0.441,7.492,1.324,10.978c0.885,3.491,2.192,6.55,3.918,9.19
	c1.731,2.641,3.899,4.725,6.516,6.25c2.609,1.533,5.65,2.299,9.109,2.299c5.666,0,10.149-1.73,13.467-5.189
	c3.309-3.469,5.592-8.275,6.842-14.425h4.166c-1.25,7.698-3.959,13.601-8.117,17.706c-4.158,4.109-9.658,6.158-16.508,6.158
	c-4.188,0-7.859-0.875-10.984-2.625s-5.737-4.133-7.84-7.166c-2.102-3.023-3.658-6.607-4.69-10.748
	c-1.033-4.135-1.552-8.594-1.552-13.367c0-4.607,0.533-9.018,1.603-13.241c1.063-4.226,2.666-7.934,4.801-11.125
	c2.133-3.2,4.799-5.759,8-7.675c3.199-1.917,6.967-2.884,11.31-2.884c3.975,0,7.481,0.856,10.532,2.559
	c3.05,1.708,5.607,4.033,7.666,6.983c2.06,2.947,3.625,6.365,4.691,10.25c1.064,3.883,1.6,8.05,1.6,12.49
	c0,0.426-0.016,0.916-0.041,1.476c-0.032,0.56-0.041,1-0.041,1.342L699.832,281.423L699.832,281.423z M741.431,277.182
	c-0.149-3.582-0.666-6.975-1.549-10.175c-0.885-3.2-2.19-6.017-3.918-8.45c-1.731-2.434-3.824-4.375-6.291-5.824
	s-5.283-2.176-8.449-2.176c-3.385,0-6.366,0.75-8.942,2.241c-2.574,1.492-4.75,3.459-6.517,5.892
	c-1.768,2.436-3.125,5.27-4.084,8.511c-0.957,3.239-1.549,6.573-1.766,9.981H741.431z"/>
<g>
	<path fill="#17A6EF" d="M681.74,324.787l11.899,30.344h-3.1l-3.701-9.449h-13.815l-3.658,9.449h-3.06l12.201-30.344H681.74z
		 M685.865,343.223l-5.867-15.561l-6.082,15.561H685.865z"/>
	<path fill="#17A6EF" d="M710.332,324.787c1.357,0,2.592,0.193,3.691,0.576s2.051,0.949,2.842,1.699s1.399,1.668,1.823,2.742
		c0.427,1.074,0.636,2.291,0.636,3.648s-0.217,2.574-0.636,3.65c-0.424,1.074-1.032,1.99-1.823,2.74s-1.742,1.314-2.851,1.701
		c-1.108,0.383-2.334,0.572-3.7,0.572h-10.566v13.025h-2.883v-30.342h13.467V324.787z M709.689,339.648
		c2.01,0,3.643-0.508,4.885-1.525c1.25-1.016,1.865-2.572,1.865-4.674c0-2.092-0.625-3.648-1.865-4.676
		c-1.25-1.018-2.875-1.523-4.885-1.523h-9.941v12.398H709.689L709.689,339.648z"/>
	<path fill="#17A6EF" d="M736.681,324.787c1.359,0,2.593,0.193,3.691,0.576c1.102,0.383,2.051,0.949,2.852,1.699
		c0.791,0.75,1.398,1.668,1.824,2.742s0.633,2.291,0.633,3.648s-0.217,2.574-0.633,3.65c-0.426,1.074-1.033,1.99-1.824,2.74
		c-0.793,0.75-1.741,1.314-2.852,1.701c-1.107,0.383-2.332,0.572-3.699,0.572h-10.574v13.025h-2.885v-30.342h13.467V324.787z
		 M736.041,339.648c2.008,0,3.641-0.508,4.883-1.525c1.25-1.016,1.867-2.572,1.867-4.674c0-2.092-0.625-3.648-1.867-4.676
		c-1.25-1.018-2.875-1.523-4.883-1.523H726.1v12.398H736.041L736.041,339.648z"/>
</g>
<path fill="#17A6EF" d="M586.566,301.281l-0.261,0.008c-0.766,1.959-1.864,3.811-3.315,5.553c-1.441,1.738-3.207,3.291-5.291,4.656
	c-2.084,1.357-4.441,2.426-7.074,3.191c-2.635,0.766-5.525,1.15-8.668,1.15c-6.967,0-12.357-1.512-16.184-4.525
	c-3.824-3.018-5.732-7.676-5.732-13.967c0-3.824,0.766-6.949,2.291-9.375s3.459-4.334,5.793-5.742c2.332-1.398,4.924-2.398,7.766-3
	c2.845-0.592,5.584-1.017,8.22-1.273l7.518-0.643c3.482-0.258,6.215-0.658,8.207-1.209c1.992-0.549,3.5-1.314,4.525-2.291
	c1.018-0.976,1.655-2.232,1.905-3.768s0.386-3.441,0.386-5.74c0-1.783-0.345-3.441-1.019-4.976
	c-0.676-1.534-1.742-2.894-3.184-4.084s-3.316-2.125-5.609-2.81c-2.291-0.676-5.1-1.018-8.408-1.018
	c-5.854,0-10.6,1.45-14.207,4.342c-3.606,2.9-5.584,7.283-5.926,13.158H543.5c0.342-7.24,2.648-12.675,6.941-16.3
	c4.282-3.625,10.375-5.435,18.272-5.435c7.9,0,13.65,1.551,17.26,4.658c3.607,3.1,5.416,7.166,5.416,12.184v38.133
	c0,0.936,0.019,1.857,0.066,2.791c0.041,0.936,0.188,1.775,0.438,2.543s0.679,1.375,1.275,1.844
	c0.592,0.467,1.441,0.697,2.551,0.697c0.853,0,2.033-0.133,3.566-0.393v4.135c-1.275,0.324-2.592,0.49-3.951,0.49
	c-1.957,0-3.5-0.25-4.646-0.768c-1.146-0.508-2.013-1.189-2.604-2.031c-0.592-0.852-0.99-1.844-1.207-2.992
	c-0.209-1.15-0.313-2.4-0.313-3.758L586.566,301.281L586.566,301.281z M586.566,277.057c-1.191,1.441-3,2.426-5.418,2.936
	c-2.425,0.508-5.125,0.892-8.093,1.148l-8.157,0.767c-2.384,0.26-4.759,0.616-7.142,1.085c-2.383,0.466-4.524,1.25-6.44,2.357
	c-1.918,1.106-3.468,2.615-4.65,4.523c-1.191,1.917-1.783,4.398-1.783,7.458c0,4.851,1.525,8.44,4.592,10.774
	c3.062,2.342,7.269,3.508,12.625,3.508c5.525,0,9.9-1,13.133-3c3.234-2,5.691-4.291,7.396-6.883c1.699-2.592,2.783-5.101,3.25-7.524
	c0.465-2.427,0.699-4.06,0.699-4.908v-12.241H586.566z"/>
<path fill="#17A6EF" d="M93.658,228.141c5.75,0,11.325,1.125,16.566,3.342c5.067,2.143,9.625,5.217,13.533,9.125
	c3.909,3.908,6.983,8.467,9.125,13.533c2.217,5.25,3.342,10.824,3.342,16.565s-1.125,11.323-3.342,16.565
	c-2.142,5.066-5.216,9.625-9.125,13.533c-3.908,3.908-8.466,6.98-13.533,9.125c-5.25,2.217-10.825,3.342-16.566,3.342
	c-5.75,0-11.325-1.125-16.567-3.342c-5.066-2.145-9.625-5.217-13.533-9.125c-3.908-3.908-6.983-8.467-9.125-13.533
	c-2.217-5.242-3.341-10.824-3.341-16.565s1.125-11.324,3.341-16.565c2.142-5.065,5.217-9.625,9.125-13.533
	c3.908-3.908,8.467-6.982,13.533-9.125C82.333,229.266,87.908,228.141,93.658,228.141 M93.658,223.465
	c-26.092,0-47.242,21.148-47.242,47.242c0,26.091,21.15,47.24,47.242,47.24c26.091,0,47.242-21.149,47.242-47.24
	C140.9,244.615,119.75,223.465,93.658,223.465L93.658,223.465z"/>
<path fill="#17A6EF" d="M93.658,237.697c4.458,0,8.783,0.875,12.85,2.594c3.933,1.667,7.458,4.042,10.491,7.074
	c3.034,3.033,5.417,6.566,7.075,10.49c1.717,4.066,2.592,8.394,2.592,12.852c0,4.459-0.875,8.783-2.592,12.852
	c-1.667,3.935-4.042,7.457-7.075,10.49s-6.566,5.418-10.491,7.074c-4.067,1.719-8.392,2.594-12.85,2.594s-8.783-0.875-12.85-2.594
	c-3.933-1.668-7.458-4.041-10.492-7.074c-3.034-3.033-5.417-6.566-7.075-10.49c-1.717-4.065-2.592-8.393-2.592-12.852
	c0-4.458,0.875-8.783,2.592-12.852c1.667-3.934,4.042-7.457,7.075-10.49c3.033-3.032,6.567-5.417,10.492-7.074
	C84.875,238.572,89.2,237.697,93.658,237.697 M93.658,234.082c-20.233,0-36.633,16.398-36.633,36.633
	c0,20.232,16.4,36.633,36.633,36.633c20.233,0,36.633-16.397,36.633-36.633C130.291,250.48,113.892,234.082,93.658,234.082
	L93.658,234.082z"/>
<path fill="#17A6EF" d="M93.658,246.215c3.308,0,6.517,0.648,9.533,1.926c2.917,1.232,5.533,3,7.783,5.25s4.017,4.866,5.25,7.782
	c1.275,3.017,1.925,6.226,1.925,9.533c0,3.31-0.65,6.519-1.925,9.532c-1.233,2.916-3,5.533-5.25,7.783s-4.867,4.019-7.783,5.25
	c-3.017,1.274-6.225,1.926-9.533,1.926c-3.309,0-6.517-0.649-9.533-1.926c-2.917-1.231-5.534-3-7.784-5.25s-4.017-4.867-5.25-7.783
	c-1.275-3.016-1.925-6.225-1.925-9.532c0-3.31,0.65-6.519,1.925-9.533c1.233-2.916,3-5.532,5.25-7.782s4.867-4.018,7.784-5.25
	C87.142,246.865,90.35,246.215,93.658,246.215 M93.658,243.531c-15.008,0-27.184,12.166-27.184,27.185
	c0,15.017,12.167,27.185,27.184,27.185c15.017,0,27.183-12.168,27.183-27.185C120.841,255.697,108.667,243.531,93.658,243.531
	L93.658,243.531z"/>
<path fill="#17A6EF" d="M93.658,246.322c3.292,0,6.483,0.644,9.492,1.918c2.9,1.226,5.508,2.982,7.75,5.226
	c2.242,2.242,4,4.851,5.225,7.75c1.275,3.009,1.917,6.2,1.917,9.491c0,3.292-0.642,6.482-1.917,9.492
	c-1.225,2.898-2.983,5.508-5.225,7.75c-2.242,2.24-4.85,4-7.75,5.225c-3.008,1.275-6.2,1.917-9.492,1.917s-6.483-0.642-9.492-1.917
	c-2.9-1.225-5.508-2.982-7.75-5.225s-4-4.852-5.225-7.75c-1.275-3.01-1.917-6.2-1.917-9.492c0-3.291,0.642-6.482,1.917-9.491
	c1.225-2.899,2.983-5.508,5.225-7.75c2.242-2.241,4.85-4,7.75-5.225C87.167,246.975,90.366,246.322,93.658,246.322 M93.658,243.648
	c-14.95,0-27.059,12.117-27.059,27.061c0,14.939,12.117,27.059,27.059,27.059c14.941,0,27.058-12.117,27.058-27.059
	C120.716,255.766,108.6,243.648,93.658,243.648L93.658,243.648z"/>
<path fill="#17A6EF" d="M93.658,253.673c2.3,0,4.533,0.45,6.633,1.343c2.025,0.857,3.85,2.084,5.417,3.649s2.792,3.392,3.65,5.417
	c0.892,2.1,1.342,4.333,1.342,6.633c0,2.301-0.45,4.533-1.342,6.635c-0.858,2.023-2.083,3.851-3.65,5.416
	c-1.566,1.565-3.392,2.791-5.417,3.649c-2.1,0.892-4.333,1.342-6.633,1.342c-2.3,0-4.533-0.45-6.633-1.342
	c-2.025-0.858-3.85-2.084-5.417-3.649c-1.566-1.566-2.792-3.393-3.65-5.416c-0.892-2.102-1.341-4.334-1.341-6.635
	c0-2.3,0.45-4.533,1.341-6.633c0.858-2.025,2.083-3.852,3.65-5.417s3.392-2.792,5.417-3.649
	C89.125,254.123,91.358,253.673,93.658,253.673 M93.658,251.807c-10.442,0-18.908,8.467-18.908,18.908
	c0,10.439,8.466,18.908,18.908,18.908c10.441,0,18.908-8.469,18.908-18.908C112.566,260.273,104.1,251.807,93.658,251.807
	L93.658,251.807z"/>
<path fill="#17A6EF" d="M93.658,253.781c2.283,0,4.5,0.449,6.592,1.334c2.017,0.851,3.825,2.074,5.383,3.634
	c1.558,1.56,2.775,3.367,3.633,5.384c0.883,2.083,1.333,4.301,1.333,6.592s-0.45,4.5-1.333,6.592
	c-0.85,2.018-2.075,3.824-3.633,5.385c-1.559,1.559-3.367,2.773-5.383,3.633c-2.083,0.885-4.3,1.334-6.592,1.334
	c-2.283,0-4.5-0.449-6.592-1.334c-2.017-0.852-3.825-2.074-5.383-3.633c-1.558-1.561-2.775-3.367-3.633-5.385
	c-0.883-2.084-1.333-4.301-1.333-6.592s0.45-4.5,1.333-6.592c0.85-2.017,2.075-3.824,3.633-5.384
	c1.559-1.56,3.367-2.774,5.383-3.633C89.15,254.232,91.366,253.781,93.658,253.781 M93.658,251.923
	c-10.375,0-18.792,8.417-18.792,18.792s8.417,18.792,18.792,18.792s18.792-8.417,18.792-18.792S104.033,251.923,93.658,251.923
	L93.658,251.923z"/>
<path fill="#17A6EF" d="M93.658,260.064c2.842,0,5.517,1.108,7.533,3.117c2.008,2.008,3.117,4.686,3.117,7.533
	c0,2.842-1.108,5.518-3.117,7.533c-2.008,2.009-4.683,3.115-7.533,3.115c-2.842,0-5.517-1.106-7.533-3.115
	c-2.008-2.01-3.117-4.686-3.117-7.533c0-2.842,1.108-5.518,3.117-7.533C88.133,261.173,90.808,260.064,93.658,260.064
	 M93.658,258.898c-6.525,0-11.817,5.291-11.817,11.816s5.292,11.814,11.817,11.814c6.525,0,11.816-5.289,11.816-11.814
	S100.183,258.898,93.658,258.898L93.658,258.898z"/>
<path fill="#17A6EF" d="M93.658,260.173c2.816,0,5.467,1.101,7.458,3.093c1.992,1.991,3.092,4.643,3.092,7.459
	c0,2.815-1.1,5.465-3.092,7.457c-1.991,1.991-4.642,3.092-7.458,3.092c-2.817,0-5.467-1.101-7.458-3.092
	c-1.992-1.992-3.092-4.642-3.092-7.457c0-2.816,1.1-5.468,3.092-7.459C88.191,261.266,90.841,260.173,93.658,260.173
	 M93.658,259.016c-6.458,0-11.7,5.241-11.7,11.699s5.242,11.7,11.7,11.7s11.7-5.242,11.7-11.7
	C105.358,264.248,100.116,259.016,93.658,259.016L93.658,259.016z"/>
<path fill="#17A6EF" d="M93.658,265.391c2.933,0,5.325,2.393,5.325,5.324s-2.392,5.325-5.325,5.325
	c-2.934,0-5.325-2.394-5.325-5.325C88.333,267.773,90.716,265.391,93.658,265.391 M93.658,264.807c-3.267,0-5.908,2.644-5.908,5.908
	c0,3.266,2.642,5.908,5.908,5.908c3.266,0,5.908-2.643,5.908-5.908C99.566,267.45,96.917,264.807,93.658,264.807L93.658,264.807z"/>
</svg>
