<?xml version="1.0" encoding="utf-8"?>
<!-- Generator: Adobe Illustrator 15.0.0, SVG Export Plug-In . SVG Version: 6.00 Build 0)  -->
<!DOCTYPE svg PUBLIC "-//W3C//DTD SVG 1.1//EN" "http://www.w3.org/Graphics/SVG/1.1/DTD/svg11.dtd">
<svg version="1.1" id="Warstwa_1" xmlns="http://www.w3.org/2000/svg" xmlns:xlink="http://www.w3.org/1999/xlink" x="0px" y="0px"
	 width="235px" height="314px" viewBox="0 0 235 314" enable-background="new 0 0 235 314" xml:space="preserve">
<g id="mT7Ezo.tif">
	<g>
		<path fill="#17A6EF" d="M115.896,11.677c15.709,0.827,24.094,8.977,30.945,19.488c11.574,17.953,17.599,37.914,22.203,58.465
			c4.725,21.022,8.387,42.284,13.348,63.188c4.605,19.37,13.818,36.731,25.984,52.44c6.969,8.977,11.221,19.016,12.637,30.235
			c2.244,17.835-11.102,38.858-28.465,42.757c-7.086,1.535-15,1.3-22.203,0.117c-8.977-1.417-16.301-0.235-23.033,6.261
			c-15.59,15-42.4,15.117-57.873,0c-6.731-6.496-13.937-7.44-23.031-6.378c-11.338,1.418-23.031,2.479-33.426-4.843
			c-9.803-6.969-14.172-16.653-16.299-27.874c-3.307-17.127,4.135-30.709,13.938-43.583c14.055-18.544,21.969-39.566,26.457-62.243
			c6.143-31.891,11.338-64.252,25.04-94.134c5.079-11.222,10.866-22.323,21.968-28.938C108.218,13.921,113.18,12.74,115.896,11.677z
			 M194.792,263.252c0.592,0.235,1.182,0.473,1.773,0.709c3.069-4.961,7.086-9.567,8.975-14.883
			c5.08-14.292-0.234-26.574-8.975-37.914c-14.058-18.307-23.74-38.739-28.701-61.416c-5.67-26.574-11.104-53.149-17.836-79.37
			c-3.896-15-9.92-29.646-21.732-40.748c-6.26-5.905-14.054-6.378-19.604,0c-5.789,6.731-11.222,14.173-14.883,22.205
			c-13.109,28.465-17.953,59.291-23.74,89.646c-4.605,24.331-13.109,46.653-27.637,66.732c-4.252,5.787-8.387,11.811-11.221,18.425
			c-4.96,11.575-0.827,30.945,10.275,36.378c3.543-12.756,11.339-19.725,21.377-16.771c6.496,1.891,12.521,6.852,17.953,11.34
			c6.851,5.786,12.521,12.756,19.135,18.778c9.449,8.622,27.992,8.386,37.205-0.473c7.44-7.086,14.41-14.764,21.969-21.732
			c6.26-5.787,13.582-10.748,22.678-7.795C189.361,248.843,194.675,254.276,194.792,263.252z"/>
	</g>
</g>
</svg>
