<?xml version="1.0" encoding="utf-8"?>
<!-- Generator: Adobe Illustrator 19.0.0, SVG Export Plug-In . SVG Version: 6.00 Build 0)  -->
<svg version="1.1" id="Warstwa_1" xmlns="http://www.w3.org/2000/svg" xmlns:xlink="http://www.w3.org/1999/xlink" x="0px" y="0px"
	 viewBox="-482 160.2 476 476" style="enable-background:new -482 160.2 476 476;" xml:space="preserve">
<style type="text/css">
	.st0{fill:#17A6EF;}
</style>
<path class="st0" d="M-170.2,379.9l-21.3,21.3c-18.9,18.9-28.3,33.1-28.3,68.5H-267v-11.8c0-26,9.4-49.6,28.3-66.1l28.3-30.7
	c9.4-9.4,14.2-21.3,14.2-33.1c0-26-21.3-47.2-47.2-47.2c-26,0-47.2,21.3-47.2,47.2h-47.3c0-52,42.5-94.5,94.5-94.5
	s94.5,42.5,94.5,94.5C-148.9,349.2-158.4,368.1-170.2,379.9 M-219.8,564.2H-267V517h47.2 M-243.4,162.6
	c-129.9,0-236.2,106.3-236.2,236.2S-373.3,635-243.4,635S-7.2,528.7-7.2,398.8S-113.5,162.6-243.4,162.6z"/>
</svg>
